# xmcd
# 
# Track frame offsets:
#     150
#     16472
#     31552
#     47775
#     65987
#     81825
#     98125
#     109572
#     128385
#     144442
#     160067
#     175225
# 
# Disc length: 2603
# 
# Revision: 1
# Processed by: cddbd v1.5.2PL0 Copyright (c) Steve Scherf et al.
# Submitted via: fre:ac v1.0.17
# 
DISCID=910a290c
DTITLE=Trem da Alegria-2002 - Trem da Alegria-2002
DYEAR=0
DGENRE=
TTITLE0=A Festa do Trem
TTITLE1=Sai do Chão
TTITLE2=Trem Fantasma
TTITLE3=Super-heróis
TTITLE4=Eu e Você
TTITLE5=Forças Armadas de Alegria
TTITLE6=Ó o Auê Aí Ô
TTITLE7=Uni-duni-tê
TTITLE8=Chalalalalá
TTITLE9=Seu Melão
TTITLE10=Eu Adoro Meu Papaizinho
TTITLE11=Terra do Amor
EXTD=
EXTT0=
EXTT1=
EXTT2=
EXTT3=
EXTT4=
EXTT5=
EXTT6=
EXTT7=
EXTT8=
EXTT9=
EXTT10=
EXTT11=
PLAYORDER=
